<svg width="663" height="300" viewBox="0 0 663 300" fill="none" xmlns="http://www.w3.org/2000/svg">
<g id="scene 1">
<g id="scene">
<g id="lightball">
<path id="light ball" d="M330.52 129.045C341.846 129.045 351.041 138.257 351.041 149.604C351.041 160.95 341.846 170.163 330.52 170.163C319.195 170.163 310 160.95 310 149.604C310 138.257 319.195 129.045 330.52 129.045Z" fill="#EEFFFD"/>
</g>
<g id="smallball">
<path id="small ball" d="M231.871 117.023C234.008 117.023 235.743 118.761 235.743 120.901C235.743 123.042 234.008 124.78 231.871 124.78C229.735 124.78 228 123.042 228 120.901C228 118.761 229.735 117.023 231.871 117.023Z" fill="#2FF0D9"/>
</g>
<g id="circle4">
<path id="circle 4" d="M452.689 155.01C452.689 177.08 398.091 195 330.844 195C263.598 195 209 177.08 209 155.01C209 132.939 263.598 115.019 330.844 115.019C398.091 115.019 452.689 132.939 452.689 155.01Z" stroke="#14F1D9" stroke-width="1.08256"/>
</g>
<g id="circle3">
<path id="circle 3" d="M209 150C209 127.929 263.598 110.009 330.844 110.009C398.091 110.009 452.689 127.929 452.689 150C452.689 172.071 398.091 189.991 330.844 189.991C263.598 189.991 209 172.071 209 150Z" stroke="#14F1D9" stroke-width="1.08256"/>
</g>
<g id="circle2">
<path id="circle 2" d="M209 150C209 127.929 263.598 110.009 330.844 110.009C398.091 110.009 452.689 127.929 452.689 150C452.689 172.071 398.091 189.991 330.844 189.991C263.598 189.991 209 172.071 209 150Z" stroke="#14F1D9" stroke-width="1.08256"/>
</g>
<g id="circle1">
<path id="circle 1" d="M452.689 144.991C452.689 167.061 398.091 184.981 330.844 184.981C263.598 184.981 209 167.061 209 144.991C209 122.92 263.598 105 330.844 105C398.091 105 452.689 122.92 452.689 144.991Z" stroke="#14F1D9" stroke-width="1.08256"/>
</g>
</g>
</g>
</svg>
